<svg width="17" height="26" viewBox="0 0 17 26" fill="none" xmlns="http://www.w3.org/2000/svg">
<path fill-rule="evenodd" clip-rule="evenodd" d="M6.29291 0.8125H10.6309C13.1161 0.8125 14.3586 0.8125 15.2297 1.469C15.5111 1.68102 15.7585 1.93766 15.9629 2.22949C16.5957 3.13309 16.5957 4.42206 16.5957 7V12.75C16.5957 15.328 16.5957 16.6169 15.9629 17.5205C15.7585 17.8124 15.5111 18.069 15.2297 18.281C14.7651 18.6312 14.1946 18.7946 13.3861 18.8709L14.1211 20.7769L15.3261 23.9019C15.5115 24.3825 15.286 24.9281 14.8226 25.1205C14.3592 25.3127 13.8332 25.0789 13.6478 24.5981L12.67 22.0625H4.25376L3.27601 24.5981C3.09063 25.0789 2.56467 25.3127 2.10124 25.1205C1.63781 24.9281 1.4124 24.3825 1.59777 23.9019L2.80278 20.7769L3.53772 18.8709C2.72927 18.7946 2.15882 18.6312 1.69411 18.281C1.41279 18.069 1.16539 17.8124 0.960995 17.5205C0.328125 16.6169 0.328125 15.328 0.328125 12.75V7C0.328125 4.42206 0.328125 3.13309 0.960995 2.22949C1.16539 1.93766 1.41279 1.68102 1.69411 1.469C2.56518 0.8125 3.80776 0.8125 6.29291 0.8125ZM5.4592 18.9364L4.97677 20.1875H11.947L11.4647 18.9364C11.2033 18.9375 10.9258 18.9375 10.6309 18.9375H6.29291C5.998 18.9375 5.72057 18.9375 5.4592 18.9364ZM4.8469 15.5C5.5124 15.5 6.05191 14.9404 6.05191 14.25C6.05191 13.5596 5.5124 13 4.8469 13C4.1814 13 3.64189 13.5596 3.64189 14.25C3.64189 14.9404 4.1814 15.5 4.8469 15.5ZM12.0769 15.5C12.7425 15.5 13.282 14.9404 13.282 14.25C13.282 13.5596 12.7425 13 12.0769 13C11.4114 13 10.8719 13.5596 10.8719 14.25C10.8719 14.9404 11.4114 15.5 12.0769 15.5ZM6.35316 4.25C5.22355 4.25 4.65874 4.25 4.2628 4.54841C4.13492 4.64479 4.02247 4.76144 3.92957 4.89409C3.6419 5.30481 3.64189 5.89071 3.64189 7.0625V8.625C3.64189 9.79679 3.6419 10.3827 3.92957 10.7934C4.02247 10.926 4.13492 11.0427 4.2628 11.1391C4.65874 11.4375 5.22355 11.4375 6.35316 11.4375H10.5707C11.7003 11.4375 12.265 11.4375 12.661 11.1391C12.7889 11.0427 12.9014 10.926 12.9943 10.7934C13.282 10.3827 13.282 9.79679 13.282 8.625V7.0625C13.282 5.89071 13.282 5.30481 12.9943 4.89409C12.9014 4.76144 12.7889 4.64479 12.661 4.54841C12.265 4.25 11.7003 4.25 10.5707 4.25H6.35316Z" fill="#D8AF72"/>
</svg>
