<svg width="26" height="25" viewBox="0 0 26 25" fill="none" xmlns="http://www.w3.org/2000/svg">
<path fill-rule="evenodd" clip-rule="evenodd" d="M14 17.9379C14.2344 17.9379 14.3515 17.9379 14.4336 17.9975C14.4602 18.0167 14.4835 18.0401 14.5029 18.0666C14.5625 18.1487 14.5625 18.266 14.5625 18.5004V21.3754C14.5625 22.5471 14.5625 23.133 14.8609 23.5437C14.9572 23.6764 15.074 23.793 15.2066 23.8894C15.6174 24.1877 16.2032 24.1877 17.375 24.1879H19C21.578 24.1879 22.8669 24.1879 23.7705 23.5312C24.0624 23.3192 24.319 23.0626 24.531 22.7709C25.1875 21.8672 25.1875 20.5782 25.1875 18.0004V11.0004C25.1875 8.42236 25.1875 7.13339 24.531 6.22979C24.319 5.93796 24.0624 5.68133 23.7705 5.4693C22.8669 4.8128 21.578 4.8128 19 4.8128H18.3884L15.7843 2.20871C14.6242 1.04869 14.0442 0.468688 13.3422 0.357501C13.1155 0.321588 12.8845 0.321588 12.6578 0.357501C11.9558 0.468688 11.3757 1.04869 10.2158 2.20871L7.61168 4.8128H7C4.42206 4.8128 3.13309 4.8128 2.22949 5.4693C1.93766 5.68133 1.68102 5.93796 1.469 6.22979C0.8125 7.13339 0.8125 8.42236 0.8125 11.0002V18.0002C0.8125 20.5782 0.8125 21.8672 1.469 22.7709C1.68102 23.0626 1.93766 23.3192 2.22949 23.5312C3.13309 24.1877 4.42206 24.1877 7 24.1877H8.625C9.79679 24.1877 10.3827 24.1877 10.7934 23.8894C10.926 23.793 11.0428 23.6764 11.1391 23.5437C11.4375 23.133 11.4375 22.5471 11.4375 21.3752V18.5004C11.4375 18.266 11.4375 18.1487 11.4971 18.0666C11.5165 18.0401 11.5398 18.0167 11.5664 17.9975C11.6485 17.9379 11.7656 17.9379 12 17.9379H14ZM13 13.2501C15.0711 13.2501 16.75 11.5712 16.75 9.50016C16.75 7.42909 15.0711 5.75016 13 5.75016C10.9289 5.75016 9.25 7.42909 9.25 9.50016C9.25 11.5712 10.9289 13.2501 13 13.2501ZM13.625 8.25016C13.625 7.73239 13.2052 7.31266 12.6875 7.31266C12.1698 7.31266 11.75 7.73239 11.75 8.25016V10.1251C11.75 10.6429 12.1698 11.0626 12.6875 11.0626H14.25C14.7677 11.0626 15.1875 10.6429 15.1875 10.1251C15.1875 9.60736 14.7677 9.18766 14.25 9.18766H13.625V8.25016ZM7.375 10.2501C7.375 10.7189 7.375 10.9532 7.25564 11.1175C7.21709 11.1706 7.17042 11.2172 7.11736 11.2557C6.95307 11.3751 6.71871 11.3751 6.25 11.3751H6C5.53129 11.3751 5.29693 11.3751 5.13264 11.2557C5.07958 11.2172 5.03291 11.1706 4.99436 11.1175C4.875 10.9532 4.875 10.7189 4.875 10.2501V10.0001C4.875 9.53149 4.875 9.29709 4.99436 9.13279C5.03291 9.07974 5.07958 9.03308 5.13264 8.99452C5.29693 8.87516 5.53129 8.87516 6 8.87516H6.25C6.71871 8.87516 6.95307 8.87516 7.11736 8.99452C7.17042 9.03308 7.21709 9.07974 7.25564 9.13279C7.375 9.29709 7.375 9.53149 7.375 10.0001V10.2501ZM7.375 14.6251C7.375 15.0939 7.375 15.3282 7.25564 15.4925C7.21709 15.5456 7.17042 15.5922 7.11736 15.6307C6.95307 15.7501 6.71871 15.7501 6.25 15.7501H6C5.53129 15.7501 5.29693 15.7501 5.13264 15.6307C5.07958 15.5922 5.03291 15.5456 4.99436 15.4925C4.875 15.3282 4.875 15.0939 4.875 14.6251V14.3751C4.875 13.9065 4.875 13.6721 4.99436 13.5077C5.03291 13.4547 5.07958 13.4081 5.13264 13.3695C5.29693 13.2501 5.53129 13.2501 6 13.2501H6.25C6.71871 13.2501 6.95307 13.2501 7.11736 13.3695C7.17042 13.4081 7.21709 13.4547 7.25564 13.5077C7.375 13.6721 7.375 13.9065 7.375 14.3751V14.6251ZM7.25564 19.93C7.375 19.7657 7.375 19.5314 7.375 19.0626V18.8126C7.375 18.344 7.375 18.1096 7.25564 17.9452C7.21709 17.8922 7.17042 17.8456 7.11736 17.807C6.95307 17.6876 6.71871 17.6876 6.25 17.6876H6C5.53129 17.6876 5.29693 17.6876 5.13264 17.807C5.07958 17.8456 5.03291 17.8922 4.99436 17.9452C4.875 18.1096 4.875 18.344 4.875 18.8126V19.0626C4.875 19.5314 4.875 19.7657 4.99436 19.93C5.03291 19.9831 5.07958 20.0297 5.13264 20.0682C5.29693 20.1876 5.53129 20.1876 6 20.1876H6.25C6.71871 20.1876 6.95307 20.1876 7.11736 20.0682C7.17042 20.0297 7.21709 19.9831 7.25564 19.93ZM21.0056 19.93C21.125 19.7657 21.125 19.5314 21.125 19.0626V18.8126C21.125 18.344 21.125 18.1096 21.0056 17.9452C20.9671 17.8922 20.9204 17.8456 20.8674 17.807C20.7031 17.6876 20.4688 17.6876 20 17.6876H19.75C19.2812 17.6876 19.0469 17.6876 18.8826 17.807C18.8296 17.8456 18.7829 17.8922 18.7444 17.9452C18.625 18.1096 18.625 18.344 18.625 18.8126V19.0626C18.625 19.5314 18.625 19.7657 18.7444 19.93C18.7829 19.9831 18.8296 20.0297 18.8826 20.0682C19.0469 20.1876 19.2812 20.1876 19.75 20.1876H20C20.4688 20.1876 20.7031 20.1876 20.8674 20.0682C20.9204 20.0297 20.9671 19.9831 21.0056 19.93ZM21.0056 15.4925C21.125 15.3282 21.125 15.0939 21.125 14.6251V14.3751C21.125 13.9065 21.125 13.6721 21.0056 13.5077C20.9671 13.4547 20.9204 13.4081 20.8674 13.3695C20.7031 13.2501 20.4688 13.2501 20 13.2501H19.75C19.2812 13.2501 19.0469 13.2501 18.8826 13.3695C18.8296 13.4081 18.7829 13.4547 18.7444 13.5077C18.625 13.6721 18.625 13.9065 18.625 14.3751V14.6251C18.625 15.0939 18.625 15.3282 18.7444 15.4925C18.7829 15.5456 18.8296 15.5922 18.8826 15.6307C19.0469 15.7501 19.2812 15.7501 19.75 15.7501H20C20.4688 15.7501 20.7031 15.7501 20.8674 15.6307C20.9204 15.5922 20.9671 15.5456 21.0056 15.4925ZM21.0056 11.1175C21.125 10.9532 21.125 10.7189 21.125 10.2501V10.0001C21.125 9.53149 21.125 9.29709 21.0056 9.13279C20.9671 9.07974 20.9204 9.03308 20.8674 8.99452C20.7031 8.87516 20.4688 8.87516 20 8.87516H19.75C19.2812 8.87516 19.0469 8.87516 18.8826 8.99452C18.8296 9.03308 18.7829 9.07974 18.7444 9.13279C18.625 9.29709 18.625 9.53149 18.625 10.0001V10.2501C18.625 10.7189 18.625 10.9532 18.7444 11.1175C18.7829 11.1706 18.8296 11.2172 18.8826 11.2557C19.0469 11.3751 19.2812 11.3751 19.75 11.3751H20C20.4688 11.3751 20.7031 11.3751 20.8674 11.2557C20.9204 11.2172 20.9671 11.1706 21.0056 11.1175Z" fill="#D8AF72"/>
</svg>
