<svg width="24" height="24" viewBox="0 0 24 24" fill="none" xmlns="http://www.w3.org/2000/svg">
<path fill-rule="evenodd" clip-rule="evenodd" d="M11.0341 5.9001C10.8529 6.22073 10.5513 6.52898 9.94811 7.14548L9.08987 8.0226L15.5762 14.6517L16.4345 13.7746C17.0377 13.1581 17.3393 12.8499 17.653 12.6647C18.5044 12.1624 19.5535 12.1624 20.405 12.6647C20.7187 12.8499 21.0203 13.1581 21.6235 13.7746C22.2268 14.3911 22.5284 14.6994 22.7095 15.02C23.2011 15.8902 23.2011 16.9624 22.7095 17.8325C22.5284 18.1532 22.2268 18.4614 21.6235 19.0779L20.7653 19.955L21.415 20.619C21.7732 20.9851 21.7732 21.5787 21.415 21.9448C21.0568 22.311 20.476 22.311 20.1178 21.9448L19.4682 21.2811L18.5965 22.1715C17.9933 22.788 17.6918 23.0963 17.378 23.2814C16.5266 23.7838 15.4775 23.7838 14.626 23.2814C14.3123 23.0963 14.0107 22.788 13.4075 22.1715C12.8043 21.5551 12.5026 21.2468 12.3215 20.9261C11.8299 20.0559 11.8299 18.9838 12.3215 18.1136C12.5026 17.793 12.8043 17.4847 13.4075 16.8682L14.2789 15.9776L7.79281 9.3486L6.9211 10.2391C6.31789 10.8556 6.01628 11.1639 5.70252 11.349C4.85107 11.8514 3.80203 11.8514 2.95059 11.349C2.63683 11.1639 2.33523 10.8556 1.73203 10.2391C1.12882 9.6226 0.82718 9.31435 0.64603 8.99373C0.154448 8.12348 0.154448 7.05135 0.64603 6.18123C0.82718 5.86048 1.12879 5.55235 1.732 4.93585L2.6035 4.0451L1.95591 3.38323C1.59767 3.0171 1.59767 2.4236 1.95591 2.05748C2.31414 1.69135 2.89495 1.69135 3.25319 2.05748L3.90077 2.71935L4.75897 1.84223C5.36219 1.22573 5.6638 0.917477 5.97756 0.732351C6.82902 0.229977 7.87804 0.229977 8.72949 0.732351C9.04326 0.917477 9.34488 1.22573 9.94811 1.84223C10.5513 2.45873 10.8529 2.76698 11.0341 3.0876C11.5256 3.95785 11.5256 5.02998 11.0341 5.9001Z" fill="#D8AF72"/>
</svg>
