<svg width="22" height="25" viewBox="0 0 22 25" fill="none" xmlns="http://www.w3.org/2000/svg">
<path fill-rule="evenodd" clip-rule="evenodd" d="M21.3125 13.958C21.3125 17.7118 18.2694 20.7549 14.5156 20.7549C14.2782 20.7549 14.0436 20.7426 13.8125 20.7189V21.6905C13.8125 22.8624 13.8125 23.4483 13.5141 23.859C13.4178 23.9916 13.301 24.1083 13.1684 24.2046C12.7576 24.503 12.1718 24.503 11 24.503C9.82825 24.503 9.24237 24.503 8.83162 24.2046C8.699 24.1083 8.58225 23.9916 8.48591 23.859C8.1875 23.4483 8.1875 22.8624 8.1875 21.6905V20.7189C7.95619 20.7426 7.7216 20.7549 7.48438 20.7549C3.73056 20.7549 0.6875 17.7118 0.6875 13.958C0.6875 11.1071 2.44196 8.6679 4.92922 7.65806C4.83736 7.233 4.78906 6.79218 4.78906 6.34082C4.78906 2.91062 7.5698 0.129883 11 0.129883C14.4303 0.129883 17.211 2.91062 17.211 6.34082C17.211 6.79218 17.1626 7.233 17.0707 7.65806C19.558 8.6679 21.3125 11.1071 21.3125 13.958ZM11.9375 9.81738C11.9375 9.29961 11.5177 8.87988 11 8.87988C10.4823 8.87988 10.0625 9.29961 10.0625 9.81738V12.3174V14.5505L8.91925 13.9789C8.45616 13.7473 7.89302 13.935 7.66147 14.3981C7.42992 14.8613 7.61764 15.4244 8.08074 15.6559L10.0625 16.6468V20.4424H11.9375V16.0674V12.8968L13.9192 11.9059C14.3824 11.6744 14.5701 11.1113 14.3385 10.6481C14.107 10.185 13.5439 9.99726 13.0808 10.2289L11.9375 10.8005V9.81738Z" fill="#D8AF72"/>
</svg>
