<svg width="26" height="21" viewBox="0 0 26 21" fill="none" xmlns="http://www.w3.org/2000/svg">
<path d="M10.728 18.626C10.728 19.8833 9.58824 20.9025 8.18234 20.9025C6.77643 20.9025 5.63672 19.8833 5.63672 18.626C5.63672 17.3688 6.77643 16.3496 8.18234 16.3496C9.58824 16.3496 10.728 17.3688 10.728 18.626Z" fill="#D8AF72"/>
<path d="M20.9115 18.626C20.9115 19.8833 19.7719 20.9025 18.3659 20.9025C16.96 20.9025 15.8203 19.8833 15.8203 18.626C15.8203 17.3688 16.96 16.3496 18.3659 16.3496C19.7719 16.3496 20.9115 17.3688 20.9115 18.626Z" fill="#D8AF72"/>
<path d="M5.32006 3.26096C5.32006 2.7895 4.89267 2.4073 4.36546 2.4073C3.83825 2.4073 3.41085 2.7895 3.41085 3.26096H5.32006ZM3.41085 10.0903C3.41085 10.5617 3.83825 10.9439 4.36546 10.9439C4.89267 10.9439 5.32006 10.5617 5.32006 10.0903H3.41085ZM1.81984 0.130859C1.29263 0.130859 0.865234 0.513062 0.865234 0.984523C0.865234 1.45598 1.29263 1.83819 1.81984 1.83819V0.130859ZM5.32006 10.0903V3.26096H3.41085V10.0903H5.32006ZM5.32006 10.0903V3.26096H3.41085V10.0903H5.32006ZM5.32006 3.26096C5.32006 1.53226 3.75296 0.130859 1.81984 0.130859V1.83819C2.69854 1.83819 3.41085 2.47518 3.41085 3.26096H5.32006Z" fill="#D8AF72"/>
<path fill-rule="evenodd" clip-rule="evenodd" d="M3.72717 5.14543C3.41016 5.88397 3.41016 6.81163 3.41016 8.66694C3.41016 10.5222 3.41016 11.4499 3.72717 12.1885C4.21195 13.3178 5.20982 14.2102 6.47269 14.6436C7.29856 14.9271 8.33591 14.9271 10.4106 14.9271H16.6007C17.899 14.9271 18.5482 14.9271 19.1356 14.7913C20.0321 14.5842 20.842 14.1483 21.4663 13.5367C21.8754 13.136 22.1794 12.623 22.787 11.5969C24.3061 9.03185 25.0657 7.74939 25.0737 6.7045C25.0861 5.10261 24.0944 3.62939 22.5057 2.88941C21.4693 2.40674 19.8464 2.40674 16.6007 2.40674H10.4106C8.33591 2.40674 7.29856 2.40674 6.47269 2.69023C5.20982 3.12375 4.21195 4.0161 3.72717 5.14543ZM10.4106 8.66694C10.4106 9.29557 9.84074 9.80515 9.13779 9.80515C8.43485 9.80515 7.86499 9.29557 7.86499 8.66694C7.86499 8.03832 8.43485 7.52872 9.13779 7.52872C9.84074 7.52872 10.4106 8.03832 10.4106 8.66694ZM14.8654 8.66694C14.8654 9.29557 14.2956 9.80515 13.5926 9.80515C12.8897 9.80515 12.3198 9.29557 12.3198 8.66694C12.3198 8.03832 12.8897 7.52872 13.5926 7.52872C14.2956 7.52872 14.8654 8.03832 14.8654 8.66694ZM18.0475 9.80515C18.7504 9.80515 19.3203 9.29557 19.3203 8.66694C19.3203 8.03832 18.7504 7.52872 18.0475 7.52872C17.3445 7.52872 16.7746 8.03832 16.7746 8.66694C16.7746 9.29557 17.3445 9.80515 18.0475 9.80515Z" fill="#D8AF72"/>
</svg>
