<svg width="26" height="25" viewBox="0 0 26 25" fill="none" xmlns="http://www.w3.org/2000/svg">
<path fill-rule="evenodd" clip-rule="evenodd" d="M14.625 18.8799H11.375C11.1406 18.8799 11.0235 18.8799 10.9414 18.9395C10.9148 18.9589 10.8915 18.9821 10.8721 19.0088C10.8125 19.0909 10.8125 19.208 10.8125 19.4424V21.6924C10.8125 22.8641 10.8125 23.45 10.5141 23.8608C10.4177 23.9934 10.3011 24.1101 10.1684 24.2065C9.75769 24.5049 9.17179 24.5049 8 24.5049H7C4.42206 24.5049 3.13309 24.5049 2.22949 23.8484C1.93766 23.6364 1.68102 23.3798 1.469 23.0879C0.8125 22.1843 0.8125 20.8954 0.8125 18.3174V13.9165C0.8125 11.8628 0.8125 10.8359 1.28467 10.0306C1.43857 9.7681 1.62666 9.52721 1.84398 9.31423C2.51068 8.66086 3.50689 8.41181 5.4993 7.91371L5.8125 7.83541V6.31738C5.8125 3.73944 5.8125 2.45047 6.469 1.54687C6.68103 1.25505 6.93766 0.998408 7.22949 0.786383C8.13309 0.129883 9.42206 0.129883 12 0.129883H14C16.578 0.129883 17.8669 0.129883 18.7705 0.786383C19.0624 0.998408 19.319 1.25505 19.531 1.54687C20.1875 2.45047 20.1875 3.73944 20.1875 6.31738V7.83541L20.5008 7.91371C22.4931 8.41181 23.4894 8.66086 24.156 9.31423C24.3734 9.52721 24.5614 9.7681 24.7154 10.0306C25.1875 10.8359 25.1875 11.8628 25.1875 13.9165V18.3174C25.1875 20.8954 25.1875 22.1843 24.531 23.0879C24.319 23.3798 24.0624 23.6364 23.7705 23.8484C22.8669 24.5049 21.578 24.5049 19 24.5049H18C16.8283 24.5049 16.2424 24.5049 15.8316 24.2065C15.699 24.1101 15.5822 23.9934 15.4859 23.8608C15.1875 23.45 15.1875 22.8641 15.1875 21.6924V19.4424C15.1875 19.208 15.1875 19.0909 15.1279 19.0088C15.1085 18.9821 15.0852 18.9589 15.0586 18.9395C14.9765 18.8799 14.8594 18.8799 14.625 18.8799ZM13.8779 10.001C13.9375 9.91888 13.9375 9.80175 13.9375 9.56738V7.94238H15.5625C15.7969 7.94238 15.914 7.94238 15.9961 7.88269C16.0227 7.86342 16.046 7.8401 16.0654 7.81357C16.125 7.73142 16.125 7.61425 16.125 7.37988V6.62988C16.125 6.39552 16.125 6.27835 16.0654 6.1962C16.046 6.16967 16.0227 6.14635 15.9961 6.12707C15.914 6.06738 15.7969 6.06738 15.5625 6.06738H13.9375V4.44238C13.9375 4.20802 13.9375 4.09085 13.8779 4.0087C13.8585 3.98217 13.8352 3.95885 13.8086 3.93957C13.7265 3.87988 13.6094 3.87988 13.375 3.87988H12.625C12.3906 3.87988 12.2735 3.87988 12.1914 3.93957C12.1648 3.95885 12.1415 3.98217 12.1221 4.0087C12.0625 4.09085 12.0625 4.20802 12.0625 4.44238V6.06738H10.4375C10.2031 6.06738 10.086 6.06738 10.0038 6.12707C9.97729 6.14635 9.95396 6.16967 9.93469 6.1962C9.875 6.27835 9.875 6.39552 9.875 6.62988V7.37988C9.875 7.61425 9.875 7.73142 9.93469 7.81357C9.95396 7.8401 9.97729 7.86342 10.0038 7.88269C10.086 7.94238 10.2031 7.94238 10.4375 7.94238H12.0625V9.56738C12.0625 9.80175 12.0625 9.91888 12.1221 10.001C12.1415 10.0276 12.1648 10.0509 12.1914 10.0703C12.2735 10.1299 12.3906 10.1299 12.625 10.1299H13.375C13.6094 10.1299 13.7265 10.1299 13.8086 10.0703C13.8352 10.0509 13.8585 10.0276 13.8779 10.001ZM7.88064 14.8723C8 14.708 8 14.4736 8 14.0049V13.7549C8 13.2861 8 13.0518 7.88064 12.8875C7.84209 12.8345 7.79542 12.7878 7.74236 12.7493C7.57807 12.6299 7.34371 12.6299 6.875 12.6299H6.625C6.15629 12.6299 5.92193 12.6299 5.75764 12.7493C5.70458 12.7878 5.65791 12.8345 5.61936 12.8875C5.5 13.0518 5.5 13.2861 5.5 13.7549V14.0049C5.5 14.4736 5.5 14.708 5.61936 14.8723C5.65791 14.9253 5.70458 14.972 5.75764 15.0105C5.92193 15.1299 6.15629 15.1299 6.625 15.1299H6.875C7.34371 15.1299 7.57807 15.1299 7.74236 15.0105C7.79542 14.972 7.84209 14.9253 7.88064 14.8723ZM14.25 14.0049C14.25 14.4736 14.25 14.708 14.1306 14.8723C14.0921 14.9253 14.0454 14.972 13.9924 15.0105C13.8281 15.1299 13.5938 15.1299 13.125 15.1299H12.875C12.4062 15.1299 12.1719 15.1299 12.0076 15.0105C11.9546 14.972 11.9079 14.9253 11.8694 14.8723C11.75 14.708 11.75 14.4736 11.75 14.0049V13.7549C11.75 13.2861 11.75 13.0518 11.8694 12.8875C11.9079 12.8345 11.9546 12.7878 12.0076 12.7493C12.1719 12.6299 12.4062 12.6299 12.875 12.6299H13.125C13.5938 12.6299 13.8281 12.6299 13.9924 12.7493C14.0454 12.7878 14.0921 12.8345 14.1306 12.8875C14.25 13.0518 14.25 13.2861 14.25 13.7549V14.0049ZM20.3806 14.8723C20.5 14.708 20.5 14.4736 20.5 14.0049V13.7549C20.5 13.2861 20.5 13.0518 20.3806 12.8875C20.3421 12.8345 20.2954 12.7878 20.2424 12.7493C20.0781 12.6299 19.8438 12.6299 19.375 12.6299H19.125C18.6562 12.6299 18.4219 12.6299 18.2576 12.7493C18.2046 12.7878 18.1579 12.8345 18.1194 12.8875C18 13.0518 18 13.2861 18 13.7549V14.0049C18 14.4736 18 14.708 18.1194 14.8723C18.1579 14.9253 18.2046 14.972 18.2576 15.0105C18.4219 15.1299 18.6562 15.1299 19.125 15.1299H19.375C19.8438 15.1299 20.0781 15.1299 20.2424 15.0105C20.2954 14.972 20.3421 14.9253 20.3806 14.8723Z" fill="#D8AF72"/>
</svg>
