<svg width="28" height="36" viewBox="0 0 28 36" fill="none" xmlns="http://www.w3.org/2000/svg">
<path d="M22.5875 18.8216C22.1598 18.8216 21.813 18.4749 21.813 18.0471V9.3149C21.3845 -1.05086 6.61201 -1.05058 6.18372 9.31497V18.0471C6.18372 18.4749 5.83697 18.8216 5.40924 18.8216C4.98152 18.8216 4.63477 18.4749 4.63477 18.0471V9.3149C5.14846 -3.10576 22.8489 -3.10485 23.362 9.31497V18.0471C23.362 18.4749 23.0153 18.8216 22.5875 18.8216Z" fill="#D8AF72"/>
<path d="M18.2952 18.8216C17.8675 18.8216 17.5207 18.4748 17.5207 18.0471V9.31486C17.3283 4.64694 10.674 4.64462 10.4806 9.31486V18.0471C10.4439 19.0709 8.97015 19.0752 8.93164 18.0471V9.31486C9.20912 2.59204 18.7915 2.59028 19.0697 9.31493C19.0697 9.31486 19.0697 18.0471 19.0697 18.0471C19.0697 18.4748 18.7229 18.8216 18.2952 18.8216Z" fill="#D8AF72"/>
<path d="M14.0007 31.7052C11.2056 31.7052 8.93164 29.4313 8.93164 26.6362C8.98339 21.4623 15.7627 19.6537 18.3911 24.1012C18.87 25.0121 17.5993 25.7449 17.0504 24.8768C15.2251 21.7875 10.5163 23.0429 10.4807 26.6363C10.5038 30.2221 15.2409 31.4842 17.0504 28.3956C17.2647 28.0256 17.7383 27.8989 18.1086 28.1131C18.4788 28.3273 18.6054 28.8011 18.3912 29.1714C17.4869 30.7343 15.8046 31.7052 14.0007 31.7052Z" fill="#D8AF72"/>
<path d="M24.7362 35.9998H3.26355C1.6525 35.9998 0.341797 34.6891 0.341797 33.078V20.1945C0.341797 18.5834 1.6525 17.2727 3.26355 17.2727H24.7362C26.3473 17.2727 27.658 18.5834 27.658 20.1945V33.078C27.6579 34.6892 26.3472 35.9998 24.7362 35.9998ZM3.26355 18.8217C2.5066 18.8217 1.89075 19.4375 1.89075 20.1945V33.078C1.89075 33.835 2.5066 34.4508 3.26355 34.4508H24.7362C25.4932 34.4508 26.109 33.835 26.109 33.078V20.1945C26.109 19.4375 25.4932 18.8217 24.7362 18.8217H3.26355Z" fill="#0B0B0B"/>
</svg>
