<svg width="36" height="32" viewBox="0 0 36 32" fill="none" xmlns="http://www.w3.org/2000/svg">
<path d="M7.20661 10.3402H0.773438C0.346289 10.3402 0 9.99392 0 9.56677C0 9.13962 0.346289 8.79333 0.773438 8.79333H7.20661C7.63376 8.79333 7.98005 9.13962 7.98005 9.56677C7.98005 9.99392 7.63376 10.3402 7.20661 10.3402Z" fill="#D8AF72"/>
<path d="M7.20661 16.7733H0.773438C0.346289 16.7733 0 16.427 0 15.9999C0 15.5727 0.346289 15.2264 0.773438 15.2264H7.20661C7.63376 15.2264 7.98005 15.5727 7.98005 15.9999C7.98005 16.427 7.63376 16.7733 7.20661 16.7733Z" fill="#D8AF72"/>
<path d="M7.20661 23.2065H0.773438C0.346289 23.2065 0 22.8603 0 22.4331C0 22.006 0.346289 21.6597 0.773438 21.6597H7.20661C7.63376 21.6597 7.98005 22.006 7.98005 22.4331C7.98005 22.8603 7.63376 23.2065 7.20661 23.2065Z" fill="#D8AF72"/>
<path d="M7.20661 29.6396H0.773438C0.346289 29.6396 0 29.2934 0 28.8662C0 28.4391 0.346289 28.0928 0.773438 28.0928H7.20661C7.63376 28.0928 7.98005 28.4391 7.98005 28.8662C7.98005 29.2934 7.63376 29.6396 7.20661 29.6396Z" fill="#0B0B0B"/>
<path d="M35.2273 10.3403H28.7227C28.2955 10.3403 27.9492 9.99404 27.9492 9.56689C27.9492 9.13975 28.2955 8.79346 28.7227 8.79346H35.2273C35.6544 8.79346 36.0007 9.13975 36.0007 9.56689C36.0007 9.99404 35.6544 10.3403 35.2273 10.3403Z" fill="#D8AF72"/>
<path d="M35.2273 16.7734H28.7227C28.2955 16.7734 27.9492 16.4271 27.9492 16C27.9492 15.5729 28.2955 15.2266 28.7227 15.2266H35.2273C35.6544 15.2266 36.0007 15.5729 36.0007 16C36.0007 16.4271 35.6544 16.7734 35.2273 16.7734Z" fill="#D8AF72"/>
<path d="M35.2273 23.2065H28.7227C28.2955 23.2065 27.9492 22.8603 27.9492 22.4331C27.9492 22.006 28.2955 21.6597 28.7227 21.6597H35.2273C35.6544 21.6597 36.0007 22.006 36.0007 22.4331C36.0007 22.8603 35.6544 23.2065 35.2273 23.2065Z" fill="#D8AF72"/>
<path d="M35.2273 29.6396H28.7227C28.2955 29.6396 27.9492 29.2934 27.9492 28.8662C27.9492 28.4391 28.2955 28.0928 28.7227 28.0928H35.2273C35.6544 28.0928 36.0007 28.4391 36.0007 28.8662C36.0007 29.2934 35.6544 29.6396 35.2273 29.6396Z" fill="#0B0B0B"/>
<path d="M35.2266 0.21582C34.7994 0.21582 34.4531 0.562109 34.4531 0.989258V2.36021H29.4954V0.989258C29.4954 0.562109 29.1491 0.21582 28.722 0.21582C28.2948 0.21582 27.9485 0.562109 27.9485 0.989258V3.13365C27.9485 3.88958 27.3336 4.5046 26.5776 4.5046H9.351C8.595 4.5046 7.98005 3.88958 7.98005 3.13365V0.989258C7.98005 0.562109 7.63376 0.21582 7.20661 0.21582C6.77946 0.21582 6.43317 0.562109 6.43317 0.989258V2.36021H1.54688V0.989258C1.54688 0.562109 1.20059 0.21582 0.773438 0.21582C0.346289 0.21582 0 0.562109 0 0.989258V31.0107C0 31.4378 0.346289 31.7841 0.773438 31.7841C1.20059 31.7841 1.54688 31.4378 1.54688 31.0107V3.90709H6.43317V31.0107C6.43317 31.4378 6.77946 31.7841 7.20661 31.7841C7.63376 31.7841 7.98005 31.4378 7.98005 31.0107V28.8663C7.98005 28.1103 8.595 27.4953 9.351 27.4953H26.5776C27.3335 27.4953 27.9485 28.1103 27.9485 28.8663V31.0107C27.9485 31.4378 28.2948 31.7841 28.722 31.7841C29.1491 31.7841 29.4954 31.4378 29.4954 31.0107V3.90709H34.4531V31.0107C34.4531 31.4378 34.7994 31.7841 35.2266 31.7841C35.6537 31.7841 36 31.4378 36 31.0107V0.989258C36 0.562109 35.6537 0.21582 35.2266 0.21582ZM26.5776 25.9485H9.351C8.85572 25.9485 8.38906 26.073 7.98005 26.2916V5.70842C8.38906 5.92709 8.85572 6.05155 9.351 6.05155H26.5776C27.0728 6.05155 27.5395 5.92709 27.9485 5.70842V26.2916C27.5395 26.0729 27.0728 25.9485 26.5776 25.9485Z" fill="#0B0B0B"/>
<path d="M15.8554 21.0622C15.7302 21.0622 15.6049 21.0319 15.4905 20.9707C15.239 20.8362 15.082 20.574 15.082 20.2888V11.7112C15.082 11.4259 15.239 11.1639 15.4905 11.0292C15.7419 10.8947 16.0471 10.9094 16.2844 11.0676L22.7176 15.3564C22.9328 15.4999 23.062 15.7414 23.062 16C23.062 16.2586 22.9328 16.5001 22.7176 16.6436L16.2844 20.9323C16.1551 21.0185 16.0054 21.0622 15.8554 21.0622ZM16.6289 13.1564V18.8436L20.8943 16L16.6289 13.1564Z" fill="#D8AF72"/>
</svg>
