<svg width="36" height="30" viewBox="0 0 36 30" fill="none" xmlns="http://www.w3.org/2000/svg">
<path d="M23.8927 27.7293C23.7218 27.3376 23.2662 27.1576 22.8745 27.3278C21.5084 27.9219 20.0599 28.2229 18.57 28.2229H18.4744C14.6655 28.2229 10.5473 27.0733 7.17726 25.0686C5.75695 24.2235 3.88593 22.7525 3.03867 20.5419C2.17171 18.2828 2.62664 15.6053 4.19601 13.7209C4.68328 13.1359 5.205 12.5094 5.73586 11.8724L8.79375 14.1041L6.32789 17.6542C6.20273 17.8342 6.15984 18.0599 6.21046 18.2736C6.26179 18.4874 6.40101 18.6702 6.59437 18.775L13.575 22.5662C13.8134 22.6963 14.1016 22.6914 14.3358 22.5543C15.593 21.816 17.0287 21.4258 18.487 21.4258H20.4213C20.8488 21.4258 21.1948 21.0791 21.1948 20.6523C21.1948 20.2248 20.8488 19.8789 20.4213 19.8789H18.487C16.9015 19.8789 15.3384 20.267 13.9399 21.0046L8.09062 17.8272L11.962 12.2542C12.8923 11.0694 13.3064 9.59497 13.1271 8.09872C12.9471 6.59403 12.1898 5.25177 10.9945 4.31942C10.6662 4.06349 10.193 4.11341 9.92507 4.43403C9.885 4.48255 5.85257 9.31442 3.00703 12.7309C2.06132 13.8665 1.42781 15.2453 1.17539 16.7176C0.920152 18.2026 1.065 19.7165 1.59375 21.096C2.60062 23.7208 4.7557 25.4279 6.38625 26.3975C9.98906 28.5407 14.3948 29.7697 18.4744 29.7697H18.5693H18.57C20.2737 29.7697 21.9295 29.4259 23.4912 28.7467C23.8835 28.5765 24.0628 28.1209 23.8927 27.7293ZM10.5902 6.05122C11.1415 6.67067 11.4902 7.4413 11.5915 8.28224C11.7216 9.37489 11.4178 10.4507 10.7344 11.3127C10.7245 11.3261 10.7147 11.3387 10.7055 11.3521L9.705 12.7928L6.73429 10.675C8.3114 8.78286 9.82312 6.97091 10.5902 6.05122Z" fill="#D8AF72"/>
<path d="M35.2266 28.2229H24.5538C25.5326 27.6829 26.4333 27.0114 27.2412 26.2197L27.3347 26.1283C30.079 23.4403 31.3833 19.5674 30.8243 15.7671L30.6415 14.4269C33.0455 14.396 34.9903 12.4307 34.9903 10.0204V8.00174C34.9903 5.57104 33.0138 3.59456 30.5831 3.59456C30.4095 3.59456 30.2379 3.6044 30.0698 3.62409C29.9468 1.73198 28.3683 0.230103 26.4452 0.230103C24.4413 0.230103 22.8115 1.85995 22.8115 3.86315C22.8115 5.7862 24.3134 7.36471 26.2062 7.48776C26.1865 7.65651 26.1766 7.82807 26.1766 8.00174V10.0204C26.1766 10.4331 26.2336 10.8325 26.3405 11.2115L12.6851 11.1989C11.0116 11.1989 9.62438 12.5601 9.59203 14.2328C9.57586 15.0569 9.89016 15.8402 10.4766 16.4378C11.0679 17.0411 11.8898 17.3871 12.7308 17.3871L21.1219 17.3878L19.7241 20.3191C19.6334 20.5103 19.6277 20.7206 19.6924 20.9055C19.6931 20.9083 19.6938 20.9118 19.6952 20.9146L22.2293 28.2229H0.773438C0.345937 28.2229 0 28.5696 0 28.9964C0 29.4239 0.345937 29.7698 0.773438 29.7698H35.2266C35.6541 29.7698 36 29.4239 36 28.9964C36 28.5696 35.6541 28.2229 35.2266 28.2229ZM20.2549 15.8416L12.7308 15.8402C12.3026 15.8402 11.8835 15.663 11.5805 15.3543C11.288 15.0562 11.1312 14.6681 11.1389 14.2624C11.1544 13.4264 11.8484 12.7457 12.6851 12.7457L20.2549 12.7528V15.8416ZM33.4434 10.0204C33.4434 11.5975 32.1609 12.8807 30.5831 12.8807C29.1473 12.8807 27.9555 11.8169 27.7537 10.4367C28.8745 10.3867 31.3172 10.0626 33.4434 8.29706V10.0204ZM33.049 6.55331C31.1899 8.48409 28.7522 8.83002 27.7235 8.88627V8.00174C27.7235 6.42463 29.006 5.14143 30.5831 5.14143C31.6322 5.14143 32.5512 5.70885 33.049 6.55331ZM26.6498 5.91487C26.5739 5.93104 26.4874 5.94932 26.4452 5.94932C25.2949 5.94932 24.3584 5.01346 24.3584 3.86315C24.3584 2.71284 25.2949 1.77698 26.4452 1.77698C27.5955 1.77698 28.5314 2.71284 28.5314 3.86315C28.5314 3.94682 28.5258 4.02346 28.5117 4.11276C27.7502 4.51987 27.1216 5.14424 26.7089 5.90292C26.6892 5.90643 26.6695 5.91065 26.6498 5.91487ZM21.2576 20.6981L23.0456 16.9476C23.1602 16.7078 23.1434 16.4266 23.0013 16.2023C22.86 15.9773 22.6132 15.8416 22.3474 15.8416H21.8018V12.7542L27.1329 12.7591C27.6272 13.3806 28.286 13.8665 29.0419 14.1492L29.2922 15.9808C29.2929 15.9836 29.2929 15.9857 29.2936 15.9885C29.7816 19.3017 28.6453 22.6795 26.2526 25.023L26.1591 25.1144C25.3568 25.9005 24.4512 26.5502 23.4605 27.0522L21.2576 20.6981Z" fill="#0B0B0B"/>
</svg>
