<svg width="34" height="36" viewBox="0 0 34 36" fill="none" xmlns="http://www.w3.org/2000/svg">
<path d="M24.0292 10.6651C23.6021 10.6651 23.2558 10.3188 23.2558 9.8917V7.29015H10.7402V9.8917C10.7402 10.3188 10.3939 10.6651 9.96679 10.6651C9.53965 10.6651 9.19336 10.3188 9.19336 9.8917V6.51672C9.19336 6.08957 9.53965 5.74329 9.96679 5.74329H24.0292C24.4564 5.74329 24.8026 6.08957 24.8026 6.51672V9.8917C24.8026 10.3188 24.4564 10.6651 24.0292 10.6651Z" fill="#D8AF72"/>
<path d="M13.1973 4.19637C13.6244 4.19637 13.9707 3.85008 13.9707 3.42293V0.773433C13.9707 0.346287 13.6244 0 13.1973 0C12.7701 0 12.4238 0.346287 12.4238 0.773433V3.42293C12.4238 3.85008 12.7701 4.19637 13.1973 4.19637Z" fill="#0B0B0B"/>
<path d="M16.998 4.19637C17.4252 4.19637 17.7715 3.85008 17.7715 3.42293V0.773433C17.7715 0.346287 17.4252 0 16.998 0C16.5709 0 16.2246 0.346287 16.2246 0.773433V3.42293C16.2246 3.85008 16.5709 4.19637 16.998 4.19637Z" fill="#0B0B0B"/>
<path d="M20.7988 4.19637C21.226 4.19637 21.5723 3.85008 21.5723 3.42293V0.773433C21.5723 0.346287 21.226 0 20.7988 0C20.3717 0 20.0254 0.346287 20.0254 0.773433V3.42293C20.0254 3.85008 20.3717 4.19637 20.7988 4.19637Z" fill="#0B0B0B"/>
<path d="M32.3 9.11816H1.69726C1.27012 9.11816 0.923828 9.46445 0.923828 9.8916C0.923828 10.3187 1.27012 10.665 1.69726 10.665H2.86986C3.0571 14.1612 4.51045 17.4214 7.008 19.9116C8.31897 21.2188 9.84165 22.2369 11.4981 22.9355L8.86045 31.0783C7.51088 31.087 6.41555 32.1872 6.41555 33.5388C6.41555 34.8958 7.51952 35.9997 8.87648 35.9997C10.2334 35.9997 11.3374 34.8958 11.3374 33.5388C11.3374 32.726 10.9411 32.0043 10.3318 31.5559L11.0595 29.3092H22.9378L24.9316 35.4647C25.0376 35.7918 25.3409 36 25.6672 36C25.7462 36 25.8265 35.9877 25.9057 35.9621C26.3121 35.8305 26.5348 35.3944 26.4032 34.988L22.4992 22.9355C24.1544 22.2373 25.6761 21.2203 26.9863 19.9145C29.4854 17.4241 30.9401 14.1626 31.1274 10.665H32.2999C32.727 10.665 33.0733 10.3187 33.0733 9.8916C33.0733 9.46445 32.7271 9.11816 32.3 9.11816ZM8.87641 34.4529C8.37241 34.4529 7.96235 34.0428 7.96235 33.5388C7.96235 33.0348 8.37241 32.6248 8.87641 32.6248C9.3804 32.6248 9.79046 33.0348 9.79046 33.5388C9.79046 34.0428 9.38047 34.4529 8.87641 34.4529ZM22.4367 27.7623H11.5606L12.9551 23.4573C14.2509 23.8417 15.6095 24.0413 16.9986 24.0413C18.3877 24.0413 19.7464 23.8417 21.0422 23.4573L22.4367 27.7623ZM25.8945 18.8187C23.5159 21.189 20.3566 22.4943 16.9986 22.4943C13.6392 22.4943 10.479 21.1881 8.10016 18.8162C5.89581 16.6183 4.6053 13.7468 4.41982 10.665H29.5773C29.3919 13.7481 28.1002 16.6207 25.8945 18.8187Z" fill="#0B0B0B"/>
</svg>
