<svg width="36" height="34" viewBox="0 0 36 34" fill="none" xmlns="http://www.w3.org/2000/svg">
<path d="M35.4221 29.1234C35.2146 29.0693 31.6675 28.1572 26.0494 27.6234L24.1056 23.5967L22.7182 24.2662L24.266 27.4736C22.3581 27.333 20.2554 27.243 17.998 27.243C15.6359 27.243 13.4425 27.3414 11.4643 27.4933L13.022 24.2662L11.6345 23.5967L9.67878 27.6487C4.21535 28.186 0.777231 29.07 0.573996 29.1234C0.235037 29.212 -0.00195312 29.5186 -0.00195312 29.8688V33.2092C-0.00195312 33.6347 0.343335 33.9792 0.768792 33.9792H35.2273C35.6528 33.9792 35.998 33.6347 35.998 33.2092V29.8688C35.998 29.5186 35.7611 29.212 35.4221 29.1234ZM34.4566 32.4385H1.53954V30.4778C3.41577 30.0524 9.71183 28.7837 17.998 28.7837C26.2843 28.7837 32.5803 30.0524 34.4566 30.4778V32.4385Z" fill="#0B0B0B"/>
<path d="M31.9988 7.88909C31.8033 7.88909 31.6078 7.81525 31.4577 7.66715C31.1548 7.36827 31.1515 6.88051 31.4504 6.57763C31.7914 6.23199 31.9792 5.77397 31.9792 5.28789C31.9792 4.27411 31.1544 3.44936 30.1407 3.44936C29.2535 3.44936 28.4931 4.08121 28.3329 4.95175C28.2559 5.37024 27.8544 5.64718 27.4358 5.57003C27.0173 5.49303 26.7405 5.09134 26.8175 4.67292C27.1123 3.07116 28.5099 1.90857 30.1407 1.90857C32.004 1.90857 33.52 3.42453 33.52 5.28789C33.52 6.18157 33.1746 7.02397 32.5473 7.65976C32.3964 7.81258 32.1976 7.88909 31.9988 7.88909Z" fill="#D8AF72"/>
<path d="M19.1268 18.257C18.9763 18.4075 18.7794 18.4827 18.5825 18.4827C18.3849 18.4827 18.188 18.4075 18.0375 18.257L18.0115 18.2317C17.2928 17.5123 16.3371 17.1163 15.3202 17.1163H14.4995V20.8238H12.9587V17.1163H7.75903C7.33357 17.1163 6.98828 16.7718 6.98828 16.3463C6.98828 15.9209 7.33357 15.5756 7.75903 15.5756H15.3202C16.7485 15.5756 18.091 16.1318 19.1015 17.1417L19.1268 17.1677C19.4278 17.4687 19.4278 17.9567 19.1268 18.257Z" fill="#0B0B0B"/>
<path d="M32.4914 10.7415H19.3127C19.031 10.7415 18.7718 10.5877 18.6367 10.3405C18.3301 9.77951 18.168 9.14357 18.168 8.50145C18.168 6.38443 19.8903 4.66207 22.0074 4.66207C22.3267 4.66207 22.6412 4.70117 22.9474 4.77859C23.7649 4.06031 24.8235 3.65637 25.9213 3.65637C27.4616 3.65637 28.8827 4.44709 29.7039 5.7172C29.8988 5.6807 30.0974 5.66235 30.2986 5.66235C32.0736 5.66235 33.5176 7.10644 33.5176 8.88141C33.5176 9.3838 33.4044 9.86594 33.181 10.3145C33.0507 10.5761 32.7837 10.7415 32.4914 10.7415ZM19.8174 9.20068H31.9467C31.9668 9.09646 31.9769 8.98985 31.9769 8.88141C31.9769 7.95602 31.224 7.20314 30.2987 7.20314C30.0678 7.20314 29.8439 7.24934 29.6334 7.34041C29.2462 7.50771 28.7971 7.33309 28.6247 6.94871C28.1472 5.88471 27.086 5.19716 25.9213 5.19716C25.0865 5.19716 24.286 5.55243 23.7251 6.17191C23.5084 6.41122 23.1655 6.48999 22.866 6.36931C22.5921 6.25897 22.3033 6.20293 22.0075 6.20293C20.74 6.20293 19.7088 7.23408 19.7088 8.50152C19.7088 8.73942 19.7458 8.97571 19.8174 9.20068Z" fill="#0B0B0B"/>
<path d="M25.6851 24.7019H10.6824C8.88843 24.7019 7.21452 23.738 6.31396 22.1864L2.51938 15.6474C1.87451 14.5361 2.2539 13.1073 3.36523 12.4623C3.90355 12.1499 4.53133 12.0658 5.13295 12.2255C5.73457 12.3852 6.23794 12.7698 6.55032 13.3082L10.3449 19.847C10.4145 19.9669 10.5438 20.0414 10.6823 20.0414H25.6851C26.97 20.0414 28.0154 21.0867 28.0154 22.3717C28.0154 23.6566 26.97 24.7019 25.6851 24.7019ZM4.53358 13.6879C4.39617 13.6879 4.26066 13.7241 4.13864 13.7949C3.76213 14.0134 3.63358 14.4974 3.85208 14.8739L7.64666 21.4129C8.27247 22.4912 9.43569 23.1611 10.6824 23.1611H25.6851C26.1204 23.1611 26.4746 22.8069 26.4746 22.3715C26.4746 21.9362 26.1205 21.582 25.6851 21.582H10.6824C9.99652 21.582 9.35651 21.2135 9.0122 20.6202L5.21762 14.0814C5.11178 13.899 4.94125 13.7688 4.73745 13.7146C4.67001 13.6968 4.60158 13.6879 4.53358 13.6879Z" fill="#D8AF72"/>
<path d="M12.5368 5.49988H5.65696C5.38439 5.49988 5.13213 5.35586 4.99353 5.12119C4.74986 4.70853 4.62109 4.23659 4.62109 3.75649C4.62109 2.27449 5.82679 1.0688 7.30872 1.0688C7.47004 1.0688 7.62939 1.08293 7.78586 1.11106C8.42173 0.420204 9.31702 0.0211182 10.2756 0.0211182C12.1442 0.0211182 13.6643 1.5413 13.6643 3.40987C13.6643 4.01022 13.5044 4.60101 13.2018 5.11845C13.0636 5.35466 12.8105 5.49988 12.5368 5.49988ZM6.17995 3.95909H12.04C12.0951 3.78209 12.1236 3.59686 12.1236 3.40987C12.1236 2.39095 11.2946 1.56198 10.2757 1.56198C9.64395 1.56198 9.0623 1.8804 8.71976 2.41366C8.51568 2.73153 8.11118 2.85445 7.76469 2.70403C7.62039 2.64137 7.46702 2.60959 7.30872 2.60959C6.67637 2.60959 6.16188 3.12407 6.16188 3.75649C6.16195 3.82471 6.168 3.8925 6.17995 3.95909Z" fill="#0B0B0B"/>
</svg>
