<svg width="36" height="32" viewBox="0 0 36 32" fill="none" xmlns="http://www.w3.org/2000/svg">
<path d="M33.6412 23.2636V17.8859C34.9746 17.6846 36 16.531 36 15.1423C36 13.6122 34.7552 12.3674 33.2251 12.3674H8.2073C3.68177 12.3674 0 16.0492 0 20.5747C0 25.1003 3.68177 28.7821 8.2073 28.7821H9.22085V30.296C9.22085 30.5933 9.39129 30.8643 9.65925 30.9931C9.92707 31.1218 10.2452 31.0857 10.4775 30.9L12.8535 28.9992L15.2295 30.8999C15.3694 31.0118 15.5403 31.0694 15.7128 31.0694C15.8266 31.0694 15.9412 31.0443 16.0478 30.9931C16.3157 30.8643 16.4862 30.5933 16.4862 30.296V28.7821H33.2252C34.7553 28.7821 36.0001 27.5373 36.0001 26.0072C36 24.6185 34.9746 23.4649 33.6412 23.2636ZM9.22085 27.2352H8.2073C4.53473 27.2352 1.54688 24.2473 1.54688 20.5747C1.54688 16.9022 4.53473 13.9143 8.2073 13.9143H33.2251C33.9022 13.9143 34.4531 14.4651 34.4531 15.1423C34.4531 15.8195 33.9022 16.3703 33.2251 16.3703H8.2788C5.96046 16.3703 4.0744 18.2565 4.0744 20.5747C4.0744 22.8931 5.96053 24.7792 8.2788 24.7792H9.22085V27.2352ZM15.7127 20.945C15.2855 20.945 14.9392 21.2913 14.9392 21.7184V28.6868L13.3367 27.4047C13.0541 27.1787 12.6527 27.1788 12.3704 27.4047L10.7678 28.6868V21.7185C10.7678 21.2914 10.4215 20.9451 9.99436 20.9451C9.56721 20.9451 9.22092 21.2914 9.22092 21.7185V23.2324H8.27888C6.81349 23.2324 5.62134 22.0402 5.62134 20.5748C5.62134 19.1094 6.81356 17.9173 8.27888 17.9173H32.0944V23.2324H16.4861V21.7185C16.4861 21.2912 16.1398 20.945 15.7127 20.945ZM33.2251 27.2352H16.4861V24.7792H33.2251C33.9022 24.7792 34.4531 25.3301 34.4531 26.0072C34.4531 26.6843 33.9022 27.2352 33.2251 27.2352Z" fill="#0B0B0B"/>
<path d="M32.8678 6.64904H32.4514C32.0677 3.43273 29.3237 0.930664 26.0059 0.930664H9.99441C6.6765 0.930664 3.93248 3.43273 3.54886 6.64904H2.56055C2.1334 6.64904 1.78711 6.99533 1.78711 7.42248C1.78711 7.84962 2.1334 8.19591 2.56055 8.19591H3.54886C3.93248 11.4122 6.6765 13.9143 9.99441 13.9143C13.4316 13.9143 16.2529 11.2291 16.472 7.84639C17.4117 7.30154 18.5884 7.30154 19.5283 7.84639C19.7475 11.2291 22.5687 13.9143 26.0059 13.9143C29.3237 13.9143 32.0678 11.4122 32.4514 8.19591H32.8678C33.295 8.19591 33.6413 7.84962 33.6413 7.42248C33.6413 6.99533 33.295 6.64904 32.8678 6.64904ZM9.99441 12.3674C7.26776 12.3674 5.04947 10.1491 5.04947 7.42248C5.04947 4.69583 7.26776 2.47754 9.99441 2.47754C12.7211 2.47754 14.9393 4.69583 14.9393 7.42248C14.9393 10.1491 12.7211 12.3674 9.99441 12.3674ZM16.3682 6.18969C16.0834 4.71432 15.2977 3.41544 14.1954 2.47761H21.8048C20.7025 3.41544 19.9168 4.71432 19.6319 6.18969C18.5839 5.79397 17.4165 5.79397 16.3682 6.18969ZM26.0058 12.3674C23.2792 12.3674 21.0609 10.1491 21.0609 7.42248C21.0609 4.69583 23.2792 2.47754 26.0058 2.47754C28.7324 2.47754 30.9507 4.69583 30.9507 7.42248C30.9507 10.1491 28.7325 12.3674 26.0058 12.3674Z" fill="#D8AF72"/>
</svg>
