<svg width="32" height="36" viewBox="0 0 32 36" fill="none" xmlns="http://www.w3.org/2000/svg">
<path d="M7.56021 18.391C7.33718 18.391 7.11197 18.3313 6.90757 18.2085C6.39338 17.8997 6.16908 17.2874 6.36216 16.7195L7.49679 13.3825H6.45919C5.97938 13.3825 5.54717 13.1163 5.33131 12.6876C5.11552 12.2591 5.1589 11.7534 5.44458 11.3679L10.3694 4.72173C10.7387 4.22336 11.3854 4.06663 11.9419 4.34071C12.4984 4.61479 12.7683 5.22285 12.5984 5.81952L11.531 9.56675H13.4698C13.9736 9.56675 14.4285 9.86558 14.6287 10.328C14.8288 10.7904 14.7353 11.3265 14.3904 11.6938L8.47835 17.9903C8.23092 18.2537 7.89806 18.391 7.56021 18.391ZM7.02324 11.8356H7.89342C8.29969 11.8356 8.68346 12.0328 8.92006 12.3631C9.15666 12.6934 9.2198 13.1202 9.08902 13.5049L8.24942 15.9743L12.8133 11.1136H11.1547C10.7551 11.1136 10.3878 10.9307 10.1469 10.6117C9.90612 10.2928 9.83074 9.88935 9.94022 9.50502L10.6833 6.89643L7.02324 11.8356Z" fill="#D8AF72"/>
<path d="M30.4688 9.468V7.35996C30.4688 6.93281 30.1225 6.58652 29.6954 6.58652C29.2682 6.58652 28.9219 6.93281 28.9219 7.35996V9.40774H26.237V7.35996C26.237 6.93281 25.8907 6.58652 25.4635 6.58652C25.0364 6.58652 24.6901 6.93281 24.6901 7.35996V9.468C23.9755 9.6641 23.4487 10.319 23.4487 11.095V12.49C23.4487 14.5032 24.8969 16.1838 26.806 16.547V25.0585C26.806 26.1765 25.8964 27.0861 24.7784 27.0861H19.7774V9.7432C19.7775 4.37077 15.4067 0 10.0342 0C4.66178 0 0.291016 4.37077 0.291016 9.7432V33.7567C0.291016 34.9936 1.29733 36 2.53434 36H17.5341C18.7711 36 19.7774 34.9936 19.7774 33.7567V28.633H24.7784C26.7494 28.633 28.3529 27.0295 28.3529 25.0585V16.5471C30.262 16.1838 31.7102 14.5033 31.7102 12.49V11.095C31.7102 10.319 31.1834 9.6641 30.4688 9.468ZM1.83789 9.7432C1.83789 5.22373 5.51474 1.54688 10.0342 1.54688C14.5537 1.54688 18.2305 5.22373 18.2305 9.7432V13.7069C18.2305 18.2264 14.5537 21.9033 10.0342 21.9033C5.51474 21.9033 1.83789 18.2264 1.83789 13.7069V9.7432ZM10.0342 23.4501C13.4695 23.4501 16.4952 21.6629 18.2305 18.9695V29.4917H1.83789V18.9695C3.57327 21.6629 6.59889 23.4501 10.0342 23.4501ZM18.2306 33.7567C18.2306 34.1407 17.9182 34.4531 17.5342 34.4531H2.53434C2.15029 34.4531 1.83789 34.1407 1.83789 33.7567V31.0386H18.2306V33.7567ZM30.1633 12.49C30.1633 13.9148 29.0042 15.0739 27.5794 15.0739C26.1547 15.0739 24.9956 13.9148 24.9956 12.49V11.095C24.9956 11.0176 25.0586 10.9547 25.136 10.9547H30.0229C30.1003 10.9547 30.1633 11.0177 30.1633 11.095V12.49Z" fill="#0B0B0B"/>
<path d="M3.52024 26.548C3.74173 27.1121 4.55025 27.1919 4.87728 26.6816C5.18623 26.2423 4.91475 25.5867 4.38579 25.494C3.79348 25.3644 3.27788 25.9922 3.52024 26.548Z" fill="#0B0B0B"/>
<path d="M7.38661 26.548C7.58004 27.0494 8.27669 27.1868 8.64801 26.799C9.18218 26.2585 8.69702 25.3493 7.94981 25.494C7.48448 25.5742 7.19367 26.1166 7.38661 26.548Z" fill="#0B0B0B"/>
<path d="M11.2529 26.548C11.4454 27.0487 12.144 27.1873 12.5136 26.799C12.9497 26.3776 12.7152 25.6027 12.1184 25.494C11.5266 25.3643 11.0098 25.9924 11.2529 26.548Z" fill="#0B0B0B"/>
<path d="M15.1203 26.548C15.3126 27.0489 16.0111 27.1871 16.381 26.799C16.8168 26.3776 16.5822 25.6018 15.985 25.494C15.3936 25.3643 14.8767 25.9932 15.1203 26.548Z" fill="#0B0B0B"/>
</svg>
