<svg width="36" height="36" viewBox="0 0 36 36" fill="none" xmlns="http://www.w3.org/2000/svg">
<path d="M35.2266 36.0001C35.6537 36.0001 36 35.6538 36 35.2266C36 34.7995 35.6537 34.4532 35.2266 34.4532H32.6415V28.8985C32.6415 28.4713 32.3162 28.3642 31.889 28.3642L29.1558 28.443C28.7286 28.443 28.2821 28.4713 28.2821 28.8985V34.4532H20.1797V28.8985C20.1797 28.4713 19.8326 28.3379 19.4053 28.3379L16.6195 28.3116C16.1923 28.3116 15.8202 28.4713 15.8202 28.8985V34.4532H7.71792V28.8985C7.71792 28.4713 7.34041 28.4931 6.9132 28.4931L4.12622 28.2911C3.69907 28.2911 3.35855 28.4713 3.35855 28.8985V34.4532H0.773438C0.346289 34.4532 0 34.7995 0 35.2266C0 35.6538 0.346289 36.0001 0.773438 36.0001H35.2266ZM4.90542 34.4532V29.6719L6.17105 29.2201V34.4532H4.90542ZM17.3672 34.4532V29.6719L18.6328 29.0738V34.4532H17.3672ZM29.829 34.4532V29.0738L31.0946 29.6719V34.4532H29.829Z" fill="#D8AF72"/>
<path d="M35.2266 25.3125H34.5338V20.9337C34.5338 18.6957 32.7131 16.875 30.4751 16.875H30.4483C28.2103 16.875 26.3895 18.6957 26.3895 20.9337V25.3125H25.6968C25.2697 25.3125 24.9234 25.6588 24.9234 26.0859V26.7188H23.5381V26.0859C23.5381 25.6588 23.1918 25.3125 22.7647 25.3125H22.072V20.9337C22.072 18.6957 20.2512 16.875 18.0132 16.875H17.9864C15.7485 16.875 13.9276 18.6957 13.9276 20.9337V25.3125H13.235C12.8078 25.3125 12.4616 25.6588 12.4616 26.0859V26.7188H11.0763V26.0859C11.0763 25.6588 10.73 25.3125 10.3028 25.3125H9.6101V20.9337C9.6101 18.6957 7.78936 16.875 5.55138 16.875H5.52452C3.28655 16.875 1.4658 18.6957 1.4658 20.9337V25.3125H0.773438C0.346289 25.3125 0 25.6588 0 26.0859V28.8984C0 29.3256 0.346289 29.6719 0.773438 29.6719H10.303C10.7302 29.6719 11.0765 29.3256 11.0765 28.8984V28.2656H12.4618V28.8984C12.4618 29.3256 12.8081 29.6719 13.2352 29.6719H22.7647C23.1919 29.6719 23.5382 29.3256 23.5382 28.8984V28.2656H24.9235V28.8984C24.9235 29.3256 25.2698 29.6719 25.6969 29.6719H35.2266C35.6537 29.6719 36 29.3256 36 28.8984V26.0859C36 25.6588 35.6537 25.3125 35.2266 25.3125ZM3.01303 20.9337C3.01303 19.5487 4.13979 18.4219 5.52487 18.4219H5.55173C6.93675 18.4219 8.06358 19.5487 8.06358 20.9337V25.3125H3.01303V20.9337ZM9.52959 26.8594V28.125H1.54688V26.8594H9.52959ZM15.4747 20.9337C15.4747 19.5487 16.6016 18.4219 17.9866 18.4219H18.0134C19.3984 18.4219 20.5253 19.5487 20.5253 20.9337V25.3125H15.4748L15.4747 20.9337ZM21.9914 26.8594V28.125H14.0086V26.8594H21.9914ZM27.9365 20.9337C27.9365 19.5487 29.0632 18.4219 30.4483 18.4219H30.4752C31.8602 18.4219 32.987 19.5487 32.987 20.9337V25.3125H27.9366V20.9337H27.9365ZM34.4531 26.8594V28.125H26.4704V26.8594H34.4531Z" fill="#0B0B0B"/>
<path d="M18 0C14.0842 0 10.8984 3.18579 10.8984 7.10156C10.8984 11.0173 14.0842 14.2031 18 14.2031C21.9158 14.2031 25.1016 11.0173 25.1016 7.10156C25.1016 3.18579 21.9158 0 18 0ZM18.7734 12.6012V12.0234C18.7734 11.5963 18.4271 11.25 18 11.25C17.5729 11.25 17.2266 11.5963 17.2266 12.0234V12.6012C14.7816 12.2589 12.8426 10.3199 12.5004 7.875H13.0781C13.5053 7.875 13.8516 7.52871 13.8516 7.10156C13.8516 6.67441 13.5053 6.32812 13.0781 6.32812H12.5004C12.8426 3.88315 14.7816 1.94414 17.2266 1.60193V2.17969C17.2266 2.60684 17.5729 2.95312 18 2.95312C18.4271 2.95312 18.7734 2.60684 18.7734 2.17969V1.60193C21.2183 1.94414 23.1574 3.88315 23.4996 6.32812H22.9219C22.4947 6.32812 22.1484 6.67441 22.1484 7.10156C22.1484 7.52871 22.4947 7.875 22.9219 7.875H23.4996C23.1574 10.32 21.2183 12.259 18.7734 12.6012Z" fill="#D8AF72"/>
<path d="M19.4062 7.875H18C17.5729 7.875 17.2266 7.52871 17.2266 7.10156V4.99219C17.2266 4.56504 17.5729 4.21875 18 4.21875C18.4271 4.21875 18.7734 4.56504 18.7734 4.99219V6.32812H19.4062C19.8334 6.32812 20.1797 6.67441 20.1797 7.10156C20.1797 7.52871 19.8334 7.875 19.4062 7.875Z" fill="#0B0B0B"/>
</svg>
