<svg width="36" height="36" viewBox="0 0 36 36" fill="none" xmlns="http://www.w3.org/2000/svg">
<path d="M23.7148 4.99219V3.02344C23.7148 1.35633 22.3585 0 20.6914 0C19.0243 0 17.668 1.35633 17.668 3.02344V20.8251H19.2148V16.7344H28.4142V20.8251H29.9611V3.02344C29.9611 2.20922 30.6234 1.54688 31.4376 1.54688C32.2518 1.54688 32.9142 2.20922 32.9142 3.02344V4.99219H34.4611V3.02344C34.4611 1.35633 33.1047 0 31.4376 0C29.7705 0 28.4142 1.35633 28.4142 3.02344V7.875H19.2148V3.02344C19.2148 2.20922 19.8772 1.54688 20.6914 1.54688C21.5056 1.54688 22.168 2.20922 22.168 3.02344V4.99219H23.7148ZM28.4142 9.42188V11.5312H19.2148V9.42188H28.4142ZM19.2148 15.1875V13.0781H28.4142V15.1875H19.2148Z" fill="#0B0B0B"/>
<path d="M29.4843 28.7488C28.2759 28.7488 27.124 28.3687 26.1529 27.6495C24.711 26.5816 22.7734 26.5816 21.3313 27.6495C20.3603 28.3687 19.2083 28.7488 18 28.7488C16.7916 28.7488 15.6397 28.3687 14.6686 27.6495C13.2266 26.5816 11.289 26.5816 9.84705 27.6495C8.87597 28.3687 7.72397 28.7488 6.51565 28.7488C5.30733 28.7488 4.15533 28.3687 3.18424 27.6495C2.48154 27.1291 1.64784 26.854 0.773438 26.854V25.3071C1.98183 25.3071 3.13383 25.6872 4.10484 26.4064C5.54674 27.4744 7.48441 27.4743 8.92645 26.4064C9.89747 25.6872 11.0495 25.3071 12.2578 25.3071C13.4661 25.3071 14.6181 25.6872 15.5892 26.4064C17.0311 27.4743 18.9687 27.4743 20.4107 26.4064C21.3818 25.6872 22.5337 25.3071 23.7421 25.3071C24.9505 25.3071 26.1024 25.6872 27.0735 26.4064C28.5154 27.4743 30.453 27.4743 31.895 26.4064C32.8662 25.6872 34.0181 25.3071 35.2264 25.3071V26.854C34.352 26.854 33.5184 27.1291 32.8156 27.6495C31.8446 28.3687 30.6927 28.7488 29.4843 28.7488Z" fill="#D8AF72"/>
<path d="M29.4844 21.7229C28.276 21.7229 27.124 21.3428 26.1529 20.6236C24.711 19.5557 22.7734 19.5557 21.3314 20.6236C20.3603 21.3428 19.2084 21.7229 18.0001 21.7229C16.7917 21.7229 15.6398 21.3428 14.6687 20.6236C13.2266 19.5557 11.289 19.5557 9.84713 20.6236C8.87604 21.3428 7.72404 21.7229 6.51572 21.7229C5.3074 21.7229 4.1554 21.3428 3.18431 20.6236C2.48154 20.1032 1.64791 19.8281 0.773438 19.8281V18.2812C1.98183 18.2812 3.13383 18.6614 4.10484 19.3805C5.54674 20.4484 7.48441 20.4484 8.92645 19.3805C9.89747 18.6614 11.0495 18.2812 12.2578 18.2812C13.4661 18.2812 14.6181 18.6614 15.5892 19.3805C17.0311 20.4484 18.9687 20.4484 20.4107 19.3805C21.3819 18.6614 22.5338 18.2812 23.7422 18.2812C24.9506 18.2812 26.1025 18.6614 27.0736 19.3805C28.5155 20.4484 30.4531 20.4484 31.8952 19.3805C32.8662 18.6614 34.0182 18.2812 35.2266 18.2812V19.8281C34.3521 19.8281 33.5185 20.1032 32.8158 20.6236C31.8447 21.3428 30.6927 21.7229 29.4844 21.7229Z" fill="#D8AF72"/>
<path d="M35.2266 36H0.773438C0.346289 36 0 35.6537 0 35.2266V4.99219C0 4.56504 0.346289 4.21875 0.773438 4.21875H35.2266C35.6537 4.21875 36 4.56504 36 4.99219V35.2266C36 35.6537 35.6537 36 35.2266 36ZM1.54688 34.4531H34.4531V5.76562H1.54688V34.4531Z" fill="#0B0B0B"/>
</svg>
