<svg width="36" height="36" viewBox="0 0 36 36" fill="none" xmlns="http://www.w3.org/2000/svg">
<path d="M19.1429 28.4949C19.0618 28.4949 18.9793 28.482 18.8982 28.455C18.4929 28.3199 18.274 27.8819 18.409 27.4767L20.1245 22.3301C20.2596 21.9249 20.6975 21.7058 21.1029 21.841C21.5081 21.9761 21.7271 22.4141 21.592 22.8193L19.8765 27.9658C19.7685 28.2899 19.4667 28.4949 19.1429 28.4949Z" fill="#D8AF72"/>
<path d="M25.4339 28.4949C25.3528 28.4949 25.2704 28.482 25.1892 28.455C24.7839 28.3199 24.565 27.8819 24.7001 27.4767L26.4155 22.3301C26.5506 21.9249 26.9885 21.7058 27.3939 21.841C27.7992 21.976 28.0181 22.414 27.883 22.8193L26.1676 27.9658C26.0596 28.2899 25.7578 28.4949 25.4339 28.4949Z" fill="#D8AF72"/>
<path d="M32.653 21.8013H14.1985V18.4084C14.1985 17.9813 13.8522 17.635 13.425 17.635C12.9979 17.635 12.6516 17.9813 12.6516 18.4084V34.4532H6.19276V18.2732C6.19276 17.846 5.84647 17.4998 5.41932 17.4998C4.99217 17.4998 4.64588 17.846 4.64588 18.2732V34.4532H1.98828C1.56113 34.4532 1.21484 34.7994 1.21484 35.2266C1.21484 35.6537 1.56113 36 1.98828 36H16.856C17.2831 36 17.6294 35.6537 17.6294 35.2266C17.6294 34.7994 17.2831 34.4532 16.856 34.4532H14.1984V28.4947H30.3784V35.2266C30.3784 35.6537 30.7247 36 31.1519 36C31.579 36 31.9253 35.6537 31.9253 35.2266V28.4947H32.653C34.4983 28.4947 35.9997 26.9934 35.9997 25.1479C35.9997 23.3025 34.4983 21.8013 32.653 21.8013ZM32.653 26.9478H14.1985V23.3481H32.653C33.6454 23.3481 34.4529 24.1555 34.4529 25.148C34.4528 26.1404 33.6454 26.9478 32.653 26.9478Z" fill="#0B0B0B"/>
<path d="M15.8556 18.7734H2.91783C1.30894 18.7734 0 17.4645 0 15.8556V2.91783C0 1.30894 1.30894 0 2.91783 0H15.8556C17.4645 0 18.7734 1.30894 18.7734 2.91783V15.8556C18.7734 17.4645 17.4645 18.7734 15.8556 18.7734ZM2.91783 1.54688C2.1619 1.54688 1.54688 2.1619 1.54688 2.91783V15.8556C1.54688 16.6115 2.1619 17.2266 2.91783 17.2266H15.8556C16.6115 17.2266 17.2266 16.6115 17.2266 15.8556V2.91783C17.2266 2.1619 16.6115 1.54688 15.8556 1.54688H2.91783Z" fill="#D8AF72"/>
<path d="M9.40365 4.50367H7.13487C6.71925 4.49552 6.35419 4.86213 6.36143 5.27711V13.4253C6.36143 13.8524 6.70772 14.1987 7.13487 14.1987C7.56202 14.1987 7.90831 13.8524 7.90831 13.4253V10.6552C8.41934 10.6524 9.06186 10.6493 9.40365 10.6493C11.1229 10.6493 12.5216 9.27086 12.5216 7.57647C12.5216 5.88215 11.1229 4.50367 9.40365 4.50367ZM9.40365 9.10246C9.0634 9.10246 8.42947 9.10549 7.9197 9.10816C7.91534 8.3156 7.91478 7.95524 7.91358 7.36448C7.91302 7.03492 7.91225 6.63576 7.91063 6.05048H9.40365C10.2552 6.05048 10.9747 6.74931 10.9747 7.57647C10.9747 8.4037 10.2552 9.10246 9.40365 9.10246Z" fill="#0B0B0B"/>
</svg>
