<svg width="36" height="34" viewBox="0 0 36 34" fill="none" xmlns="http://www.w3.org/2000/svg">
<path d="M35.2359 21.2428C32.2742 21.2428 30.2359 19.2459 28.4302 16.8764C30.2398 14.5096 32.2818 12.5193 35.2359 12.5193C35.6573 12.5193 35.9989 12.1777 35.9989 11.7563C35.9989 11.3349 35.6573 10.9933 35.2359 10.9933C31.7823 10.9933 29.4364 13.1323 27.4928 15.5969C27.3293 15.3673 27.1668 15.137 27.0047 14.9072C25.1979 12.3462 23.4913 9.9271 21.0331 9.6436C19.5139 9.46859 17.9255 10.1385 16.1776 11.6925C15.8627 11.9725 15.8343 12.4548 16.1144 12.7697C16.3944 13.0848 16.8767 13.113 17.1915 12.833C18.5959 11.5844 19.7955 11.0368 20.8582 11.1596C22.638 11.3648 24.1533 13.5129 25.7577 15.7869C26.0112 16.1462 26.2684 16.5108 26.5314 16.8751C26.2607 17.249 25.9961 17.6232 25.7355 17.9919C24.1094 20.2923 22.5735 22.4651 20.7723 22.6273C19.6119 22.7323 18.2843 22.0343 16.7154 20.4949C16.4145 20.1998 15.9314 20.2043 15.6364 20.5051C15.3412 20.8059 15.3458 21.289 15.6465 21.5842C17.4122 23.3165 19.0181 24.1636 20.5425 24.1636C20.6652 24.1636 20.7875 24.1581 20.9091 24.1471C23.4126 23.9217 25.1462 21.4693 26.9816 18.8727C27.1506 18.6335 27.3202 18.3937 27.4907 18.1547C29.4301 20.6225 31.7728 22.7688 35.2358 22.7688C35.6572 22.7688 35.9988 22.4272 35.9988 22.0058C35.9988 21.5844 35.6573 21.2428 35.2359 21.2428Z" fill="#D8AF72"/>
<path d="M10.3603 19.5977L11.0279 21.1575C11.2958 21.7834 11.2965 22.5016 11.0298 23.128C11.0273 23.1338 11.0247 23.1396 11.0221 23.1453L8.08852 29.5859C7.96054 29.8669 7.68342 30.0329 7.39361 30.0329C7.28782 30.0329 7.18038 30.0108 7.07778 29.9641C6.69433 29.7894 6.52501 29.3369 6.69967 28.9534L9.62886 22.5226C9.7302 22.2789 9.72882 22.0008 9.6249 21.758L8.95733 20.1982L10.3603 19.5977Z" fill="#0B0B0B"/>
<path d="M6.53986 21.2487C6.67706 21.3309 6.80262 21.4048 6.91339 21.4694C7.55225 21.8419 7.81904 22.6118 7.54781 23.3003L4.85759 30.1113C4.73918 30.4113 4.45173 30.5943 4.14777 30.5943C4.05447 30.5943 3.95965 30.5771 3.86767 30.5407C3.47575 30.3859 3.28347 29.9426 3.43836 29.5507L6.11617 22.771C6.00803 22.7078 5.88684 22.6364 5.75567 22.5577L6.53986 21.2487Z" fill="#0B0B0B"/>
<path d="M15.3462 15.528C15.401 15.528 15.456 15.5254 15.5111 15.5203L16.3613 15.4411C17.4755 15.3368 18.2973 14.3455 18.1931 13.2321C18.1431 12.6923 17.8857 12.2044 17.4686 11.8582C17.0512 11.5119 16.524 11.3488 15.9841 11.3996L14.5475 11.5338C14.5278 11.5356 14.505 11.5354 14.4835 11.5333L12.0753 11.2906C12.011 10.3814 11.9331 9.4448 11.846 8.73269C11.844 8.65569 11.8406 8.57904 11.8371 8.50302C11.8168 8.05942 11.8276 7.92319 11.9435 7.8088C11.9492 7.80318 12.0196 7.73361 12.1032 7.65106C12.5758 7.97292 13.0744 8.14113 13.564 8.14113C14.2219 8.14113 14.9825 7.68512 15.5985 6.92133C16.2558 6.10642 16.6414 5.06364 16.6844 3.98493C16.7218 3.04849 16.3733 2.12585 15.7284 1.45355C15.0971 0.795687 14.2525 0.432487 13.3499 0.43103C13.3481 0.43103 13.3463 0.43103 13.3444 0.43103C12.4522 0.43103 11.6133 0.778069 10.9817 1.40854C10.3489 2.04039 10.0003 2.88083 10.0003 3.7751C10.0003 3.92243 10.0114 4.07587 10.0334 4.23402C9.93728 4.31983 9.8435 4.40279 9.74805 4.4845C9.40823 4.77549 8.99356 4.96653 8.61801 5.20549C5.2507 7.34779 2.56832 11.5114 2.45574 11.6875C2.45123 11.6946 2.44686 11.7018 2.44256 11.709C2.2398 12.0507 2.00305 12.3974 1.75243 12.7644C1.39277 13.2911 1.02083 13.8358 0.721101 14.4118C0.526529 14.7857 0.67192 15.2464 1.0458 15.4409C1.41962 15.6354 1.88035 15.49 2.07485 15.1162C2.33254 14.621 2.67826 14.1147 3.01268 13.6249C3.26295 13.2583 3.52175 12.8795 3.74761 12.5001C3.88794 12.2837 6.42999 8.40625 9.43708 6.49307C9.87596 6.21387 10.3433 5.98413 10.7408 5.64354C10.8872 5.51813 11.0301 5.39015 11.1683 5.26633C11.2361 5.20563 11.3039 5.14487 11.372 5.08452C11.5865 4.8946 11.6765 4.60041 11.605 4.32295C11.5528 4.1204 11.5263 3.93603 11.5263 3.77503C11.5263 3.28884 11.7158 2.83193 12.0598 2.48843C12.4032 2.14569 12.8592 1.95701 13.3443 1.95701H13.3474C13.8313 1.95778 14.2857 2.15415 14.627 2.50993C14.9863 2.88444 15.1805 3.3999 15.1595 3.92396C15.0894 5.67975 13.8567 6.59469 13.5639 6.61494C13.3292 6.61494 13.0429 6.47878 12.7579 6.23156C12.3433 5.87175 11.7127 5.89166 11.3226 6.27699C11.0009 6.59476 10.9032 6.69118 10.87 6.72392C10.2559 7.33045 10.2886 8.04832 10.3126 8.57252C10.3161 8.64868 10.3197 8.72547 10.3212 8.80275C10.3217 8.82924 10.3235 8.85574 10.3268 8.88203C10.5283 10.5055 10.6831 13.4327 10.7257 14.2911C10.7448 14.6762 10.8996 15.0444 11.1614 15.3279L14.1919 18.6083C14.2737 18.6968 14.3645 18.7779 14.4621 18.8492L15.6245 19.6994C15.733 19.7788 15.8043 19.8957 15.8249 20.0286C15.8455 20.1615 15.8131 20.2945 15.7337 20.403C15.6543 20.5115 15.5375 20.5827 15.4046 20.6033C15.2717 20.6239 15.1387 20.5916 15.0301 20.5122L14.3411 20.0082C14.2655 19.953 14.2269 19.8639 14.2379 19.7699C14.2876 19.3435 14.142 18.9346 13.8385 18.6478L10.0504 15.0689C10.0208 15.041 9.9977 15.008 9.98161 14.9706C9.90655 14.7962 9.78807 14.5123 9.64872 14.1473L8.52527 10.8514C8.38924 10.4525 7.9557 10.2393 7.55685 10.3753C7.15799 10.5113 6.94483 10.9448 7.08079 11.3437L8.08798 14.2987C7.69821 14.8796 7.40001 15.256 7.20911 15.4781C6.93449 15.7977 6.97084 16.2794 7.29048 16.5541C7.61005 16.8287 8.09187 16.7924 8.36656 16.4728C8.47824 16.3428 8.6212 16.168 8.79212 15.942C8.85489 16.0262 8.92516 16.1052 9.00257 16.1783L12.7139 19.6846C12.6747 20.2905 12.9478 20.8798 13.4403 21.2399L14.1294 21.7439C14.4809 22.001 14.8958 22.1357 15.3232 22.1357C15.4279 22.1357 15.5332 22.1276 15.6387 22.1112C16.1744 22.0281 16.6457 21.7414 16.9656 21.3038C17.6263 20.4006 17.4289 19.1282 16.5256 18.4675L15.363 17.6176C15.345 17.6044 15.3282 17.5894 15.3131 17.573L12.7501 14.7988L13.9364 14.8372C14.2747 15.2733 14.7974 15.528 15.3462 15.528ZM14.3322 13.0519C14.4547 13.064 14.5767 13.0642 14.6921 13.0529L16.1261 12.9191C16.2594 12.9065 16.3906 12.9468 16.4942 13.0327C16.5975 13.1184 16.6611 13.2392 16.6736 13.3736C16.6995 13.65 16.4956 13.8959 16.2194 13.9218L15.3695 14.0008C15.2759 14.0096 15.1883 13.9685 15.1338 13.8902C14.8888 13.5394 14.5097 13.3299 14.0918 13.3154L12.199 13.2542C12.1915 13.1216 12.1834 12.981 12.1748 12.8345L14.3322 13.0519Z" fill="#0B0B0B"/>
<path d="M9.71999 33.5685H4.71176C3.8519 33.5685 3.15234 32.8687 3.15234 32.0085C3.15234 31.9923 3.1529 31.9762 3.15394 31.9601L3.27013 30.1328C3.28435 29.9086 3.39665 29.7021 3.57714 29.5683C3.7577 29.4344 3.988 29.387 4.2065 29.4385C4.216 29.4406 5.60894 29.7386 6.88479 28.9302C7.12625 28.7771 7.43285 28.7719 7.67952 28.9167L10.4877 30.5653C11.0012 30.8456 11.3195 31.3816 11.3195 31.969C11.3195 32.8509 10.602 33.5685 9.71999 33.5685ZM4.67944 32.0168C4.68311 32.0315 4.69615 32.0425 4.71176 32.0425H9.71999C9.7605 32.0425 9.79352 32.0095 9.79352 31.9689C9.79352 31.9414 9.77902 31.9166 9.75571 31.9042C9.746 31.8991 9.7365 31.8937 9.72699 31.8882L7.28628 30.4554C6.33555 30.9375 5.39821 31.0318 4.74284 31.019L4.67944 32.0168Z" fill="#D8AF72"/>
<path d="M5.46647 22.9978C5.25609 22.9978 5.04591 22.9402 4.86008 22.8253C1.52357 20.7639 0.699154 19.1256 0.346983 18.426C-0.604789 16.5348 0.697212 14.4432 0.753051 14.3551C0.92501 14.084 1.24839 13.9495 1.56186 14.0187L7.84587 15.406C8.06479 15.4543 8.25145 15.5965 8.35605 15.7947C8.44859 15.9699 8.46891 16.1733 8.41474 16.3618L10.4675 19.3649C10.5877 19.5407 10.6289 19.7589 10.5812 19.9664C10.5335 20.174 10.4011 20.3522 10.2162 20.4579L6.03715 22.8462C5.86006 22.9473 5.6632 22.9978 5.46647 22.9978ZM1.81068 15.6364C1.59176 16.1549 1.3462 17.0167 1.71023 17.74C1.99789 18.3117 2.66367 19.6343 5.47473 21.4099L8.74111 19.5433L7.116 17.1659C7.03116 17.0414 6.96832 16.9064 6.92781 16.7661L1.81068 15.6364Z" fill="#D8AF72"/>
</svg>
